<svg xmlns="http://www.w3.org/2000/svg" xmlns:xlink="http://www.w3.org/1999/xlink" width="150" zoomAndPan="magnify" viewBox="0 0 112.5 37.5" height="50" preserveAspectRatio="xMidYMid meet" version="1.0"><defs><g/><clipPath id="d84f53086d"><path d="M 105 17 L 110 17 L 110 21 L 105 21 Z M 105 17 " clip-rule="nonzero"/></clipPath><clipPath id="fcc5a796dc"><path d="M 114.472656 16.765625 L 108.074219 21.800781 L 98.921875 10.167969 L 105.320312 5.132812 Z M 114.472656 16.765625 " clip-rule="nonzero"/></clipPath><clipPath id="3ce0f05aec"><path d="M 114.472656 16.765625 L 108.074219 21.800781 L 98.921875 10.167969 L 105.320312 5.132812 Z M 114.472656 16.765625 " clip-rule="nonzero"/></clipPath><clipPath id="f85a1a4bde"><path d="M 114.472656 16.765625 L 108.074219 21.800781 L 98.921875 10.167969 L 105.320312 5.132812 Z M 114.472656 16.765625 " clip-rule="nonzero"/></clipPath><clipPath id="4fb8a35557"><path d="M 105 15 L 109 15 L 109 18 L 105 18 Z M 105 15 " clip-rule="nonzero"/></clipPath><clipPath id="bed692ab78"><path d="M 114.472656 16.765625 L 108.074219 21.800781 L 98.921875 10.167969 L 105.320312 5.132812 Z M 114.472656 16.765625 " clip-rule="nonzero"/></clipPath><clipPath id="a728ec2f45"><path d="M 114.472656 16.765625 L 108.074219 21.800781 L 98.921875 10.167969 L 105.320312 5.132812 Z M 114.472656 16.765625 " clip-rule="nonzero"/></clipPath><clipPath id="15e9b9ce28"><path d="M 114.472656 16.765625 L 108.074219 21.800781 L 98.921875 10.167969 L 105.320312 5.132812 Z M 114.472656 16.765625 " clip-rule="nonzero"/></clipPath><clipPath id="382c33a2ee"><path d="M 109 16 L 111 16 L 111 18 L 109 18 Z M 109 16 " clip-rule="nonzero"/></clipPath><clipPath id="9bd4c0ff9e"><path d="M 114.472656 16.765625 L 108.074219 21.800781 L 98.921875 10.167969 L 105.320312 5.132812 Z M 114.472656 16.765625 " clip-rule="nonzero"/></clipPath><clipPath id="715d1d36d6"><path d="M 114.472656 16.765625 L 108.074219 21.800781 L 98.921875 10.167969 L 105.320312 5.132812 Z M 114.472656 16.765625 " clip-rule="nonzero"/></clipPath><clipPath id="e0c7146efe"><path d="M 114.472656 16.765625 L 108.074219 21.800781 L 98.921875 10.167969 L 105.320312 5.132812 Z M 114.472656 16.765625 " clip-rule="nonzero"/></clipPath><clipPath id="c99bba6316"><path d="M 106 13 L 111.511719 13 L 111.511719 15 L 106 15 Z M 106 13 " clip-rule="nonzero"/></clipPath><clipPath id="77d5460969"><path d="M 114.472656 16.765625 L 108.074219 21.800781 L 98.921875 10.167969 L 105.320312 5.132812 Z M 114.472656 16.765625 " clip-rule="nonzero"/></clipPath><clipPath id="782379b972"><path d="M 114.472656 16.765625 L 108.074219 21.800781 L 98.921875 10.167969 L 105.320312 5.132812 Z M 114.472656 16.765625 " clip-rule="nonzero"/></clipPath><clipPath id="7503912ce3"><path d="M 114.472656 16.765625 L 108.074219 21.800781 L 98.921875 10.167969 L 105.320312 5.132812 Z M 114.472656 16.765625 " clip-rule="nonzero"/></clipPath><clipPath id="2fe2725026"><path d="M 105 11 L 108 11 L 108 13 L 105 13 Z M 105 11 " clip-rule="nonzero"/></clipPath><clipPath id="0cb6eebdcf"><path d="M 114.472656 16.765625 L 108.074219 21.800781 L 98.921875 10.167969 L 105.320312 5.132812 Z M 114.472656 16.765625 " clip-rule="nonzero"/></clipPath><clipPath id="7b64c95a9a"><path d="M 114.472656 16.765625 L 108.074219 21.800781 L 98.921875 10.167969 L 105.320312 5.132812 Z M 114.472656 16.765625 " clip-rule="nonzero"/></clipPath><clipPath id="61e349e6a4"><path d="M 114.472656 16.765625 L 108.074219 21.800781 L 98.921875 10.167969 L 105.320312 5.132812 Z M 114.472656 16.765625 " clip-rule="nonzero"/></clipPath><clipPath id="20577f939d"><path d="M 103 6 L 106 6 L 106 12 L 103 12 Z M 103 6 " clip-rule="nonzero"/></clipPath><clipPath id="22a6c1b04b"><path d="M 114.472656 16.765625 L 108.074219 21.800781 L 98.921875 10.167969 L 105.320312 5.132812 Z M 114.472656 16.765625 " clip-rule="nonzero"/></clipPath><clipPath id="25880d6134"><path d="M 114.472656 16.765625 L 108.074219 21.800781 L 98.921875 10.167969 L 105.320312 5.132812 Z M 114.472656 16.765625 " clip-rule="nonzero"/></clipPath><clipPath id="49e278247f"><path d="M 114.472656 16.765625 L 108.074219 21.800781 L 98.921875 10.167969 L 105.320312 5.132812 Z M 114.472656 16.765625 " clip-rule="nonzero"/></clipPath><clipPath id="5319595cad"><path d="M 100 8 L 102 8 L 102 12 L 100 12 Z M 100 8 " clip-rule="nonzero"/></clipPath><clipPath id="6ac3736f91"><path d="M 114.472656 16.765625 L 108.074219 21.800781 L 98.921875 10.167969 L 105.320312 5.132812 Z M 114.472656 16.765625 " clip-rule="nonzero"/></clipPath><clipPath id="e3253a96e5"><path d="M 114.472656 16.765625 L 108.074219 21.800781 L 98.921875 10.167969 L 105.320312 5.132812 Z M 114.472656 16.765625 " clip-rule="nonzero"/></clipPath><clipPath id="d35ee176ff"><path d="M 114.472656 16.765625 L 108.074219 21.800781 L 98.921875 10.167969 L 105.320312 5.132812 Z M 114.472656 16.765625 " clip-rule="nonzero"/></clipPath></defs><g clip-path="url(#d84f53086d)"><g clip-path="url(#fcc5a796dc)"><g clip-path="url(#3ce0f05aec)"><g clip-path="url(#f85a1a4bde)"><path fill="#000000" d="M 105.566406 18.078125 C 105.757812 17.761719 107.304688 18.203125 108.503906 18.9375 C 109.699219 19.667969 109.601562 20.109375 109.410156 20.421875 C 109.21875 20.734375 108.871094 21.027344 107.679688 20.300781 C 106.484375 19.574219 105.367188 18.382812 105.566406 18.078125 Z M 105.566406 18.078125 " fill-opacity="1" fill-rule="nonzero"/></g></g></g></g><g clip-path="url(#4fb8a35557)"><g clip-path="url(#bed692ab78)"><g clip-path="url(#a728ec2f45)"><g clip-path="url(#15e9b9ce28)"><path fill="#000000" d="M 105.304688 16.050781 C 105.375 15.804688 106.441406 15.796875 107.320312 15.992188 C 108.199219 16.1875 108.195312 16.425781 108.214844 16.695312 C 108.230469 16.863281 108.160156 16.984375 108.011719 17.0625 C 107.707031 17.171875 107.398438 17.175781 107.089844 17.074219 C 106.148438 16.875 105.242188 16.308594 105.304688 16.050781 Z M 105.304688 16.050781 " fill-opacity="1" fill-rule="nonzero"/></g></g></g></g><g clip-path="url(#382c33a2ee)"><g clip-path="url(#9bd4c0ff9e)"><g clip-path="url(#715d1d36d6)"><g clip-path="url(#e0c7146efe)"><path fill="#000000" d="M 109.371094 17.066406 C 109.398438 16.882812 109.960938 16.757812 110.441406 16.84375 C 110.921875 16.929688 110.933594 17.140625 110.902344 17.324219 C 110.871094 17.507812 110.789062 17.707031 110.3125 17.628906 C 109.839844 17.550781 109.339844 17.246094 109.371094 17.066406 Z M 109.371094 17.066406 " fill-opacity="1" fill-rule="nonzero"/></g></g></g></g><g clip-path="url(#c99bba6316)"><g clip-path="url(#77d5460969)"><g clip-path="url(#782379b972)"><g clip-path="url(#7503912ce3)"><path fill="#000000" d="M 106.238281 14.523438 C 106.179688 14.160156 108.007812 13.441406 109.71875 13.171875 C 111.429688 12.902344 111.679688 13.292969 111.726562 13.664062 C 111.777344 14.035156 111.671875 14.480469 109.960938 14.742188 C 108.25 15.007812 106.292969 14.890625 106.238281 14.523438 Z M 106.238281 14.523438 " fill-opacity="1" fill-rule="nonzero"/></g></g></g></g><g clip-path="url(#2fe2725026)"><g clip-path="url(#0cb6eebdcf)"><g clip-path="url(#7b64c95a9a)"><g clip-path="url(#61e349e6a4)"><path fill="#000000" d="M 105.105469 12.746094 C 105.003906 12.589844 105.742188 11.859375 106.507812 11.367188 C 107.273438 10.871094 107.476562 10.992188 107.578125 11.144531 C 107.683594 11.296875 107.714844 11.53125 106.945312 12.03125 C 106.171875 12.527344 105.203125 12.898438 105.105469 12.746094 Z M 105.105469 12.746094 " fill-opacity="1" fill-rule="nonzero"/></g></g></g></g><g clip-path="url(#20577f939d)"><g clip-path="url(#22a6c1b04b)"><g clip-path="url(#25880d6134)"><g clip-path="url(#49e278247f)"><path fill="#000000" d="M 103.40625 11.433594 C 103.058594 11.316406 103.210938 9.523438 103.710938 8.027344 C 104.214844 6.53125 104.664062 6.515625 105.023438 6.625 C 105.378906 6.738281 105.722656 7.035156 105.226562 8.539062 C 104.730469 10.042969 103.761719 11.558594 103.40625 11.433594 Z M 103.40625 11.433594 " fill-opacity="1" fill-rule="nonzero"/></g></g></g></g><g clip-path="url(#5319595cad)"><g clip-path="url(#6ac3736f91)"><g clip-path="url(#e3253a96e5)"><g clip-path="url(#d35ee176ff)"><path fill="#000000" d="M 101.707031 11.476562 C 101.488281 11.511719 101.082031 10.597656 100.941406 9.734375 C 100.800781 8.875 101.03125 8.730469 101.257812 8.703125 C 101.484375 8.679688 101.742188 8.71875 101.882812 9.582031 C 102.023438 10.445312 101.929688 11.445312 101.707031 11.476562 Z M 101.707031 11.476562 " fill-opacity="1" fill-rule="nonzero"/></g></g></g></g><g fill="#000000" fill-opacity="1"><g transform="translate(5.559785, 24.973035)"><g><path d="M 9.609375 -4.421875 C 9.609375 -2.765625 9.421875 -1.96875 8.890625 -1.234375 C 8.421875 -0.59375 7.6875 -0.1875 6.78125 -0.1875 C 5.953125 -0.1875 5.3125 -0.53125 4.796875 -1.109375 C 4.25 -1.734375 3.96875 -2.59375 3.96875 -4.28125 L 3.96875 -9.28125 C 4.5 -10.59375 5.65625 -11.34375 6.796875 -11.34375 C 7.8125 -11.34375 8.515625 -10.796875 8.890625 -10.3125 C 9.59375 -9.359375 9.609375 -8.34375 9.609375 -7.015625 Z M 1.875 -5.125 C 1.875 -4.375 1.921875 -3.828125 2.125 -3.15625 C 2.734375 -1.1875 4.65625 0.171875 6.78125 0.171875 C 8.09375 0.171875 9.46875 -0.375 10.359375 -1.34375 C 11.328125 -2.390625 11.703125 -3.484375 11.703125 -5.1875 L 11.703125 -6.421875 C 11.703125 -7.953125 11.28125 -9.171875 10.4375 -10.109375 C 9.59375 -11.0625 8.265625 -11.71875 6.890625 -11.71875 C 5.640625 -11.71875 4.515625 -11.015625 3.96875 -10.078125 L 3.96875 -16.21875 L 0.65625 -16.21875 L 0.65625 -15.84375 L 1.875 -15.84375 Z M 1.875 -5.125 "/></g></g></g><g fill="#000000" fill-opacity="1"><g transform="translate(18.493582, 24.973035)"><g><path d="M 11.046875 -5.515625 L 11.046875 -6.328125 C 11.046875 -8.4375 10.484375 -9.515625 9.40625 -10.5 C 8.5625 -11.28125 7.28125 -11.71875 6.15625 -11.71875 C 3.25 -11.71875 1.234375 -9.53125 1.234375 -6.53125 L 1.234375 -5.125 C 1.234375 -3.46875 1.609375 -2.375 2.515625 -1.375 C 3.390625 -0.4375 4.6875 0.171875 6.25 0.171875 C 8.3125 0.171875 9.90625 -0.921875 10.859375 -3 L 10.515625 -3.15625 C 9.515625 -1.109375 8.15625 -0.1875 6.3125 -0.1875 C 4.9375 -0.1875 4.078125 -0.84375 3.671875 -1.875 C 3.359375 -2.625 3.328125 -3.59375 3.328125 -4.90625 L 3.328125 -5.515625 Z M 8.96875 -5.890625 L 3.328125 -5.890625 L 3.328125 -7.265625 C 3.328125 -8.953125 3.609375 -9.8125 4.15625 -10.4375 C 4.671875 -11.015625 5.328125 -11.34375 6.15625 -11.34375 C 7.046875 -11.34375 7.796875 -10.9375 8.25 -10.3125 C 8.796875 -9.578125 8.96875 -8.78125 8.96875 -7.125 Z M 8.96875 -5.890625 "/></g></g></g><g fill="#000000" fill-opacity="1"><g transform="translate(30.422981, 24.973035)"><g><path d="M 5.640625 0 L 5.640625 -0.375 L 4.453125 -0.375 L 4.453125 -16.21875 L 1.140625 -16.21875 L 1.140625 -15.84375 L 2.359375 -15.84375 L 2.359375 -0.375 L 1.140625 -0.375 L 1.140625 0 Z M 5.640625 0 "/></g></g></g><g fill="#000000" fill-opacity="1"><g transform="translate(36.149794, 24.973035)"><g><path d="M 4.453125 -14.46875 C 4.453125 -15.09375 3.953125 -15.59375 3.328125 -15.59375 C 2.71875 -15.59375 2.203125 -15.09375 2.203125 -14.46875 C 2.203125 -13.859375 2.71875 -13.34375 3.328125 -13.34375 C 3.953125 -13.34375 4.453125 -13.859375 4.453125 -14.46875 Z M 5.640625 0 L 5.640625 -0.375 L 4.453125 -0.375 L 4.453125 -11.5625 L 1.140625 -11.5625 L 1.140625 -11.1875 L 2.359375 -11.1875 L 2.359375 -0.375 L 1.140625 -0.375 L 1.140625 0 Z M 5.640625 0 "/></g></g></g><g fill="#000000" fill-opacity="1"><g transform="translate(42.845763, 24.973035)"><g/></g></g><g fill="#000000" fill-opacity="1"><g transform="translate(51.585763, 24.973035)"><g><path d="M 8.96875 -2.25 C 8.4375 -0.953125 7.28125 -0.1875 6.140625 -0.1875 C 5.125 -0.1875 4.421875 -0.734375 4.046875 -1.234375 C 3.34375 -2.1875 3.328125 -3.203125 3.328125 -4.53125 L 3.328125 -7.265625 C 3.328125 -8.953125 3.609375 -9.8125 4.15625 -10.4375 C 4.671875 -11.015625 5.328125 -11.34375 6.15625 -11.34375 C 7.046875 -11.34375 7.796875 -10.9375 8.25 -10.3125 C 8.796875 -9.578125 8.96875 -8.78125 8.96875 -7.125 Z M 11.0625 -6.359375 C 11.0625 -8.046875 10.703125 -9.140625 9.734375 -10.203125 C 8.828125 -11.171875 7.453125 -11.71875 6.15625 -11.71875 C 4.015625 -11.71875 2.09375 -10.359375 1.5 -8.390625 C 1.28125 -7.71875 1.234375 -7.171875 1.234375 -6.421875 L 1.234375 -5.125 C 1.234375 -3.59375 1.65625 -2.375 2.5 -1.421875 C 3.34375 -0.46875 4.671875 0.171875 6.046875 0.171875 C 7.296875 0.171875 8.4375 -0.53125 8.984375 -1.46875 L 8.984375 0 L 12.28125 0 L 12.28125 -0.375 L 11.0625 -0.375 Z M 11.0625 -6.359375 "/></g></g></g><g fill="#000000" fill-opacity="1"><g transform="translate(64.51956, 24.973035)"><g><path d="M 12.21875 0 L 12.21875 -0.375 L 10.796875 -0.375 L 6.203125 -7.03125 L 10.3125 -11.1875 L 11.734375 -11.1875 L 11.734375 -11.5625 L 8.375 -11.5625 L 8.375 -11.1875 L 9.734375 -11.1875 L 4.453125 -5.90625 L 4.453125 -16.21875 L 1.140625 -16.21875 L 1.140625 -15.84375 L 2.359375 -15.84375 L 2.359375 -0.375 L 1.140625 -0.375 L 1.140625 0 L 5.5625 0 L 5.5625 -0.375 L 4.453125 -0.375 L 4.453125 -5.875 L 8.234375 -0.375 L 6.875 -0.375 L 6.875 0 Z M 12.21875 0 "/></g></g></g><g fill="#000000" fill-opacity="1"><g transform="translate(76.818998, 24.973035)"><g><path d="M 8.703125 -11.5625 L 8.703125 -11.1875 L 9.921875 -11.1875 L 9.921875 -3.8125 C 9.921875 -1.546875 8.734375 -0.21875 7.109375 -0.21875 C 5.46875 -0.21875 4.28125 -1.546875 4.28125 -3.8125 L 4.28125 -11.1875 L 5.46875 -11.1875 L 5.46875 -11.5625 L 0.96875 -11.5625 L 0.96875 -11.1875 L 2.1875 -11.1875 L 2.1875 -5.1875 C 2.1875 -4.3125 2.328125 -3.46875 2.578125 -2.84375 C 3.296875 -1.0625 5.09375 0.15625 7.109375 0.15625 C 9.109375 0.15625 10.90625 -1.0625 11.625 -2.84375 C 11.875 -3.46875 12.015625 -4.3125 12.015625 -5.1875 L 12.015625 -11.1875 L 13.203125 -11.1875 L 13.203125 -11.5625 Z M 8.703125 -11.5625 "/></g></g></g><g fill="#000000" fill-opacity="1"><g transform="translate(90.986257, 24.973035)"><g><path d="M 13.203125 0 L 13.203125 -0.375 L 12.015625 -0.375 L 12.015625 -6.375 C 12.015625 -7.25 11.875 -8.09375 11.625 -8.71875 C 10.90625 -10.5 9.109375 -11.71875 7.109375 -11.71875 C 5.09375 -11.71875 3.296875 -10.5 2.578125 -8.71875 C 2.328125 -8.09375 2.1875 -7.25 2.1875 -6.375 L 2.1875 -0.375 L 0.96875 -0.375 L 0.96875 0 L 5.46875 0 L 5.46875 -0.375 L 4.28125 -0.375 L 4.28125 -7.75 C 4.28125 -10.015625 5.46875 -11.34375 7.109375 -11.34375 C 8.734375 -11.34375 9.921875 -10.015625 9.921875 -7.75 L 9.921875 -0.375 L 8.734375 -0.375 L 8.734375 0 Z M 13.203125 0 "/></g></g></g></svg>