<svg xmlns="http://www.w3.org/2000/svg" xmlns:xlink="http://www.w3.org/1999/xlink" width="150" zoomAndPan="magnify" viewBox="0 0 112.5 37.5" height="50" preserveAspectRatio="xMidYMid meet" version="1.0"><defs><g/><clipPath id="a52dc39e5a"><path d="M 105 18 L 110 18 L 110 21 L 105 21 Z M 105 18 " clip-rule="nonzero"/></clipPath><clipPath id="c4d5da0ff8"><path d="M 114.472656 16.765625 L 108.074219 21.800781 L 98.921875 10.167969 L 105.320312 5.132812 Z M 114.472656 16.765625 " clip-rule="nonzero"/></clipPath><clipPath id="e9fbf43e5c"><path d="M 114.472656 16.765625 L 108.074219 21.800781 L 98.921875 10.167969 L 105.320312 5.132812 Z M 114.472656 16.765625 " clip-rule="nonzero"/></clipPath><clipPath id="68e3392173"><path d="M 105 15 L 109 15 L 109 18 L 105 18 Z M 105 15 " clip-rule="nonzero"/></clipPath><clipPath id="a65d44d4b7"><path d="M 114.472656 16.765625 L 108.074219 21.800781 L 98.921875 10.167969 L 105.320312 5.132812 Z M 114.472656 16.765625 " clip-rule="nonzero"/></clipPath><clipPath id="7ce742d856"><path d="M 114.472656 16.765625 L 108.074219 21.800781 L 98.921875 10.167969 L 105.320312 5.132812 Z M 114.472656 16.765625 " clip-rule="nonzero"/></clipPath><clipPath id="502546b52b"><path d="M 109 16 L 111 16 L 111 18 L 109 18 Z M 109 16 " clip-rule="nonzero"/></clipPath><clipPath id="809d3ef5ca"><path d="M 114.472656 16.765625 L 108.074219 21.800781 L 98.921875 10.167969 L 105.320312 5.132812 Z M 114.472656 16.765625 " clip-rule="nonzero"/></clipPath><clipPath id="9f80b45c38"><path d="M 114.472656 16.765625 L 108.074219 21.800781 L 98.921875 10.167969 L 105.320312 5.132812 Z M 114.472656 16.765625 " clip-rule="nonzero"/></clipPath><clipPath id="bab8dd9bed"><path d="M 106 13 L 111.511719 13 L 111.511719 15 L 106 15 Z M 106 13 " clip-rule="nonzero"/></clipPath><clipPath id="789b915301"><path d="M 114.472656 16.765625 L 108.074219 21.800781 L 98.921875 10.167969 L 105.320312 5.132812 Z M 114.472656 16.765625 " clip-rule="nonzero"/></clipPath><clipPath id="29f0090868"><path d="M 114.472656 16.765625 L 108.074219 21.800781 L 98.921875 10.167969 L 105.320312 5.132812 Z M 114.472656 16.765625 " clip-rule="nonzero"/></clipPath><clipPath id="01de7cc920"><path d="M 104 10 L 108 10 L 108 13 L 104 13 Z M 104 10 " clip-rule="nonzero"/></clipPath><clipPath id="cdcba60a9c"><path d="M 114.472656 16.765625 L 108.074219 21.800781 L 98.921875 10.167969 L 105.320312 5.132812 Z M 114.472656 16.765625 " clip-rule="nonzero"/></clipPath><clipPath id="2febe8bf5e"><path d="M 114.472656 16.765625 L 108.074219 21.800781 L 98.921875 10.167969 L 105.320312 5.132812 Z M 114.472656 16.765625 " clip-rule="nonzero"/></clipPath><clipPath id="ecfcb1af38"><path d="M 102 6 L 106 6 L 106 12 L 102 12 Z M 102 6 " clip-rule="nonzero"/></clipPath><clipPath id="afc3affd47"><path d="M 114.472656 16.765625 L 108.074219 21.800781 L 98.921875 10.167969 L 105.320312 5.132812 Z M 114.472656 16.765625 " clip-rule="nonzero"/></clipPath><clipPath id="5492168dad"><path d="M 114.472656 16.765625 L 108.074219 21.800781 L 98.921875 10.167969 L 105.320312 5.132812 Z M 114.472656 16.765625 " clip-rule="nonzero"/></clipPath><clipPath id="b13b4d3569"><path d="M 100 8 L 102 8 L 102 12 L 100 12 Z M 100 8 " clip-rule="nonzero"/></clipPath><clipPath id="ecdd4cf83d"><path d="M 114.472656 16.765625 L 108.074219 21.800781 L 98.921875 10.167969 L 105.320312 5.132812 Z M 114.472656 16.765625 " clip-rule="nonzero"/></clipPath><clipPath id="cce627096e"><path d="M 114.472656 16.765625 L 108.074219 21.800781 L 98.921875 10.167969 L 105.320312 5.132812 Z M 114.472656 16.765625 " clip-rule="nonzero"/></clipPath></defs><g clip-path="url(#a52dc39e5a)"><g clip-path="url(#c4d5da0ff8)"><g clip-path="url(#e9fbf43e5c)"><path fill="#ffffff" d="M 105.363281 18.105469 C 105.558594 17.785156 107.144531 18.238281 108.367188 18.984375 C 109.59375 19.734375 109.492188 20.183594 109.296875 20.503906 C 109.097656 20.824219 108.746094 21.121094 107.523438 20.378906 C 106.304688 19.636719 105.164062 18.421875 105.363281 18.105469 Z M 105.363281 18.105469 " fill-opacity="1" fill-rule="nonzero"/></g></g></g><g clip-path="url(#68e3392173)"><g clip-path="url(#a65d44d4b7)"><g clip-path="url(#7ce742d856)"><path fill="#ffffff" d="M 105.097656 16.035156 C 105.167969 15.78125 106.261719 15.777344 107.160156 15.976562 C 108.058594 16.175781 108.050781 16.417969 108.070312 16.695312 C 108.085938 16.867188 108.019531 16.992188 107.863281 17.066406 C 107.550781 17.179688 107.238281 17.1875 106.921875 17.082031 C 105.957031 16.875 105.03125 16.296875 105.097656 16.035156 Z M 105.097656 16.035156 " fill-opacity="1" fill-rule="nonzero"/></g></g></g><g clip-path="url(#502546b52b)"><g clip-path="url(#809d3ef5ca)"><g clip-path="url(#9f80b45c38)"><path fill="#ffffff" d="M 109.253906 17.070312 C 109.285156 16.886719 109.859375 16.757812 110.351562 16.847656 C 110.84375 16.933594 110.855469 17.152344 110.824219 17.335938 C 110.792969 17.523438 110.703125 17.730469 110.21875 17.648438 C 109.734375 17.570312 109.222656 17.257812 109.253906 17.070312 Z M 109.253906 17.070312 " fill-opacity="1" fill-rule="nonzero"/></g></g></g><g clip-path="url(#bab8dd9bed)"><g clip-path="url(#789b915301)"><g clip-path="url(#29f0090868)"><path fill="#ffffff" d="M 106.050781 14.472656 C 105.992188 14.101562 107.863281 13.367188 109.609375 13.09375 C 111.359375 12.816406 111.617188 13.214844 111.667969 13.59375 C 111.714844 13.972656 111.609375 14.425781 109.859375 14.699219 C 108.109375 14.96875 106.109375 14.847656 106.050781 14.472656 Z M 106.050781 14.472656 " fill-opacity="1" fill-rule="nonzero"/></g></g></g><g clip-path="url(#01de7cc920)"><g clip-path="url(#cdcba60a9c)"><g clip-path="url(#2febe8bf5e)"><path fill="#ffffff" d="M 104.890625 12.652344 C 104.789062 12.496094 105.542969 11.75 106.328125 11.242188 C 107.109375 10.738281 107.316406 10.863281 107.421875 11.019531 C 107.527344 11.171875 107.5625 11.414062 106.773438 11.921875 C 105.984375 12.433594 104.992188 12.8125 104.890625 12.652344 Z M 104.890625 12.652344 " fill-opacity="1" fill-rule="nonzero"/></g></g></g><g clip-path="url(#ecfcb1af38)"><g clip-path="url(#afc3affd47)"><g clip-path="url(#5492168dad)"><path fill="#ffffff" d="M 103.15625 11.3125 C 102.796875 11.195312 102.957031 9.359375 103.46875 7.828125 C 103.984375 6.296875 104.441406 6.285156 104.808594 6.398438 C 105.171875 6.511719 105.527344 6.816406 105.019531 8.355469 C 104.511719 9.890625 103.519531 11.441406 103.15625 11.3125 Z M 103.15625 11.3125 " fill-opacity="1" fill-rule="nonzero"/></g></g></g><g clip-path="url(#b13b4d3569)"><g clip-path="url(#ecdd4cf83d)"><g clip-path="url(#cce627096e)"><path fill="#ffffff" d="M 101.417969 11.355469 C 101.191406 11.394531 100.777344 10.457031 100.632812 9.574219 C 100.492188 8.695312 100.726562 8.546875 100.960938 8.519531 C 101.191406 8.496094 101.453125 8.535156 101.597656 9.417969 C 101.742188 10.300781 101.644531 11.324219 101.417969 11.355469 Z M 101.417969 11.355469 " fill-opacity="1" fill-rule="nonzero"/></g></g></g><g fill="#ffffff" fill-opacity="1"><g transform="translate(5.559785, 24.973035)"><g><path d="M 9.609375 -4.421875 C 9.609375 -2.765625 9.421875 -1.96875 8.890625 -1.234375 C 8.421875 -0.59375 7.6875 -0.1875 6.78125 -0.1875 C 5.953125 -0.1875 5.3125 -0.53125 4.796875 -1.109375 C 4.25 -1.734375 3.96875 -2.59375 3.96875 -4.28125 L 3.96875 -9.28125 C 4.5 -10.59375 5.65625 -11.34375 6.796875 -11.34375 C 7.8125 -11.34375 8.515625 -10.796875 8.890625 -10.3125 C 9.59375 -9.359375 9.609375 -8.34375 9.609375 -7.015625 Z M 1.875 -5.125 C 1.875 -4.375 1.921875 -3.828125 2.125 -3.15625 C 2.734375 -1.1875 4.65625 0.171875 6.78125 0.171875 C 8.09375 0.171875 9.46875 -0.375 10.359375 -1.34375 C 11.328125 -2.390625 11.703125 -3.484375 11.703125 -5.1875 L 11.703125 -6.421875 C 11.703125 -7.953125 11.28125 -9.171875 10.4375 -10.109375 C 9.59375 -11.0625 8.265625 -11.71875 6.890625 -11.71875 C 5.640625 -11.71875 4.515625 -11.015625 3.96875 -10.078125 L 3.96875 -16.21875 L 0.65625 -16.21875 L 0.65625 -15.84375 L 1.875 -15.84375 Z M 1.875 -5.125 "/></g></g></g><g fill="#ffffff" fill-opacity="1"><g transform="translate(18.493582, 24.973035)"><g><path d="M 11.046875 -5.515625 L 11.046875 -6.328125 C 11.046875 -8.4375 10.484375 -9.515625 9.40625 -10.5 C 8.5625 -11.28125 7.28125 -11.71875 6.15625 -11.71875 C 3.25 -11.71875 1.234375 -9.53125 1.234375 -6.53125 L 1.234375 -5.125 C 1.234375 -3.46875 1.609375 -2.375 2.515625 -1.375 C 3.390625 -0.4375 4.6875 0.171875 6.25 0.171875 C 8.3125 0.171875 9.90625 -0.921875 10.859375 -3 L 10.515625 -3.15625 C 9.515625 -1.109375 8.15625 -0.1875 6.3125 -0.1875 C 4.9375 -0.1875 4.078125 -0.84375 3.671875 -1.875 C 3.359375 -2.625 3.328125 -3.59375 3.328125 -4.90625 L 3.328125 -5.515625 Z M 8.96875 -5.890625 L 3.328125 -5.890625 L 3.328125 -7.265625 C 3.328125 -8.953125 3.609375 -9.8125 4.15625 -10.4375 C 4.671875 -11.015625 5.328125 -11.34375 6.15625 -11.34375 C 7.046875 -11.34375 7.796875 -10.9375 8.25 -10.3125 C 8.796875 -9.578125 8.96875 -8.78125 8.96875 -7.125 Z M 8.96875 -5.890625 "/></g></g></g><g fill="#ffffff" fill-opacity="1"><g transform="translate(30.422981, 24.973035)"><g><path d="M 5.640625 0 L 5.640625 -0.375 L 4.453125 -0.375 L 4.453125 -16.21875 L 1.140625 -16.21875 L 1.140625 -15.84375 L 2.359375 -15.84375 L 2.359375 -0.375 L 1.140625 -0.375 L 1.140625 0 Z M 5.640625 0 "/></g></g></g><g fill="#ffffff" fill-opacity="1"><g transform="translate(36.149794, 24.973035)"><g><path d="M 4.453125 -14.46875 C 4.453125 -15.09375 3.953125 -15.59375 3.328125 -15.59375 C 2.71875 -15.59375 2.203125 -15.09375 2.203125 -14.46875 C 2.203125 -13.859375 2.71875 -13.34375 3.328125 -13.34375 C 3.953125 -13.34375 4.453125 -13.859375 4.453125 -14.46875 Z M 5.640625 0 L 5.640625 -0.375 L 4.453125 -0.375 L 4.453125 -11.5625 L 1.140625 -11.5625 L 1.140625 -11.1875 L 2.359375 -11.1875 L 2.359375 -0.375 L 1.140625 -0.375 L 1.140625 0 Z M 5.640625 0 "/></g></g></g><g fill="#ffffff" fill-opacity="1"><g transform="translate(42.845763, 24.973035)"><g/></g></g><g fill="#ffffff" fill-opacity="1"><g transform="translate(51.585763, 24.973035)"><g><path d="M 8.96875 -2.25 C 8.4375 -0.953125 7.28125 -0.1875 6.140625 -0.1875 C 5.125 -0.1875 4.421875 -0.734375 4.046875 -1.234375 C 3.34375 -2.1875 3.328125 -3.203125 3.328125 -4.53125 L 3.328125 -7.265625 C 3.328125 -8.953125 3.609375 -9.8125 4.15625 -10.4375 C 4.671875 -11.015625 5.328125 -11.34375 6.15625 -11.34375 C 7.046875 -11.34375 7.796875 -10.9375 8.25 -10.3125 C 8.796875 -9.578125 8.96875 -8.78125 8.96875 -7.125 Z M 11.0625 -6.359375 C 11.0625 -8.046875 10.703125 -9.140625 9.734375 -10.203125 C 8.828125 -11.171875 7.453125 -11.71875 6.15625 -11.71875 C 4.015625 -11.71875 2.09375 -10.359375 1.5 -8.390625 C 1.28125 -7.71875 1.234375 -7.171875 1.234375 -6.421875 L 1.234375 -5.125 C 1.234375 -3.59375 1.65625 -2.375 2.5 -1.421875 C 3.34375 -0.46875 4.671875 0.171875 6.046875 0.171875 C 7.296875 0.171875 8.4375 -0.53125 8.984375 -1.46875 L 8.984375 0 L 12.28125 0 L 12.28125 -0.375 L 11.0625 -0.375 Z M 11.0625 -6.359375 "/></g></g></g><g fill="#ffffff" fill-opacity="1"><g transform="translate(64.51956, 24.973035)"><g><path d="M 12.21875 0 L 12.21875 -0.375 L 10.796875 -0.375 L 6.203125 -7.03125 L 10.3125 -11.1875 L 11.734375 -11.1875 L 11.734375 -11.5625 L 8.375 -11.5625 L 8.375 -11.1875 L 9.734375 -11.1875 L 4.453125 -5.90625 L 4.453125 -16.21875 L 1.140625 -16.21875 L 1.140625 -15.84375 L 2.359375 -15.84375 L 2.359375 -0.375 L 1.140625 -0.375 L 1.140625 0 L 5.5625 0 L 5.5625 -0.375 L 4.453125 -0.375 L 4.453125 -5.875 L 8.234375 -0.375 L 6.875 -0.375 L 6.875 0 Z M 12.21875 0 "/></g></g></g><g fill="#ffffff" fill-opacity="1"><g transform="translate(76.818998, 24.973035)"><g><path d="M 8.703125 -11.5625 L 8.703125 -11.1875 L 9.921875 -11.1875 L 9.921875 -3.8125 C 9.921875 -1.546875 8.734375 -0.21875 7.109375 -0.21875 C 5.46875 -0.21875 4.28125 -1.546875 4.28125 -3.8125 L 4.28125 -11.1875 L 5.46875 -11.1875 L 5.46875 -11.5625 L 0.96875 -11.5625 L 0.96875 -11.1875 L 2.1875 -11.1875 L 2.1875 -5.1875 C 2.1875 -4.3125 2.328125 -3.46875 2.578125 -2.84375 C 3.296875 -1.0625 5.09375 0.15625 7.109375 0.15625 C 9.109375 0.15625 10.90625 -1.0625 11.625 -2.84375 C 11.875 -3.46875 12.015625 -4.3125 12.015625 -5.1875 L 12.015625 -11.1875 L 13.203125 -11.1875 L 13.203125 -11.5625 Z M 8.703125 -11.5625 "/></g></g></g><g fill="#ffffff" fill-opacity="1"><g transform="translate(90.986257, 24.973035)"><g><path d="M 13.203125 0 L 13.203125 -0.375 L 12.015625 -0.375 L 12.015625 -6.375 C 12.015625 -7.25 11.875 -8.09375 11.625 -8.71875 C 10.90625 -10.5 9.109375 -11.71875 7.109375 -11.71875 C 5.09375 -11.71875 3.296875 -10.5 2.578125 -8.71875 C 2.328125 -8.09375 2.1875 -7.25 2.1875 -6.375 L 2.1875 -0.375 L 0.96875 -0.375 L 0.96875 0 L 5.46875 0 L 5.46875 -0.375 L 4.28125 -0.375 L 4.28125 -7.75 C 4.28125 -10.015625 5.46875 -11.34375 7.109375 -11.34375 C 8.734375 -11.34375 9.921875 -10.015625 9.921875 -7.75 L 9.921875 -0.375 L 8.734375 -0.375 L 8.734375 0 Z M 13.203125 0 "/></g></g></g></svg>